<?xml version="1.0" encoding="UTF-8"?>
<svg xmlns="http://www.w3.org/2000/svg" width="800" height="380" viewBox="0 0 800 380">
  <rect width="800" height="380" fill="#1e1e2e"/>

  <!-- ========== Transformer Model (left) ========== -->

  <!-- Transformer box -->
  <rect x="30" y="110" width="130" height="105" rx="12" ry="12" fill="rgba(166,227,161,0.12)" stroke="#a6e3a1" stroke-width="2"/>
  <text x="95" y="153" text-anchor="middle" fill="#a6e3a1" font-family="Arial, Helvetica, sans-serif" font-size="15" font-weight="bold">Transformer</text>
  <text x="95" y="175" text-anchor="middle" fill="#a6e3a1" font-family="Arial, Helvetica, sans-serif" font-size="13">Model</text>
  <text x="95" y="200" text-anchor="middle" fill="#a6e3a1" font-family="Arial, Helvetica, sans-serif" font-size="22">&#x3C0;&#x3B8;</text>

  <!-- Robot State input -->
  <rect x="40" y="270" width="110" height="36" rx="8" ry="8" fill="rgba(249,226,175,0.15)" stroke="#f9e2af" stroke-width="1.5"/>
  <text x="95" y="293" text-anchor="middle" fill="#f9e2af" font-family="Arial, Helvetica, sans-serif" font-size="12" font-weight="bold">Robot State</text>

  <!-- Arrow: State -> Transformer -->
  <line x1="95" y1="270" x2="95" y2="220" stroke="#585b70" stroke-width="1.8"/>
  <polygon points="90,222 95,215 100,222" fill="#585b70"/>

  <!-- Arrow: Transformer -> outputs -->
  <line x1="160" y1="160" x2="210" y2="160" stroke="#585b70" stroke-width="1.8"/>
  <polygon points="208,155 218,160 208,165" fill="#585b70"/>

  <!-- ========== Multiple Timestep Outputs ========== -->

  <!-- Timestep 1 -->
  <text x="262" y="60" text-anchor="middle" fill="#a6e3a1" font-family="Arial, Helvetica, sans-serif" font-size="12" font-weight="bold">t=1</text>
  <rect x="240" y="72" width="44" height="175" rx="4" ry="4" fill="rgba(137,180,250,0.06)" stroke="#89b4fa" stroke-width="1" stroke-opacity="0.5"/>
  <!-- Bin cells with varying opacity (bimodal pattern) -->
  <rect x="244" y="76" width="36" height="8" fill="#89b4fa" fill-opacity="0.10"/>
  <rect x="244" y="86" width="36" height="8" fill="#89b4fa" fill-opacity="0.15"/>
  <rect x="244" y="96" width="36" height="8" fill="#89b4fa" fill-opacity="0.30"/>
  <rect x="244" y="106" width="36" height="8" fill="#89b4fa" fill-opacity="0.55"/>
  <rect x="244" y="116" width="36" height="8" fill="#89b4fa" fill-opacity="0.80"/>
  <rect x="244" y="126" width="36" height="8" fill="#89b4fa" fill-opacity="0.50"/>
  <rect x="244" y="136" width="36" height="8" fill="#89b4fa" fill-opacity="0.20"/>
  <rect x="244" y="146" width="36" height="8" fill="#89b4fa" fill-opacity="0.10"/>
  <rect x="244" y="156" width="36" height="8" fill="#89b4fa" fill-opacity="0.08"/>
  <rect x="244" y="166" width="36" height="8" fill="#89b4fa" fill-opacity="0.15"/>
  <rect x="244" y="176" width="36" height="8" fill="#89b4fa" fill-opacity="0.35"/>
  <rect x="244" y="186" width="36" height="8" fill="#89b4fa" fill-opacity="0.70"/>
  <rect x="244" y="196" width="36" height="8" fill="#89b4fa" fill-opacity="0.85"/>
  <rect x="244" y="206" width="36" height="8" fill="#89b4fa" fill-opacity="0.45"/>
  <rect x="244" y="216" width="36" height="8" fill="#89b4fa" fill-opacity="0.15"/>
  <rect x="244" y="226" width="36" height="8" fill="#89b4fa" fill-opacity="0.08"/>
  <text x="262" y="255" text-anchor="middle" fill="#7f849c" font-family="Arial, Helvetica, sans-serif" font-size="10">P(a&#x2081;|s)</text>

  <!-- Timestep 2 -->
  <text x="332" y="60" text-anchor="middle" fill="#a6e3a1" font-family="Arial, Helvetica, sans-serif" font-size="12" font-weight="bold">t=2</text>
  <rect x="310" y="72" width="44" height="175" rx="4" ry="4" fill="rgba(137,180,250,0.06)" stroke="#89b4fa" stroke-width="1" stroke-opacity="0.5"/>
  <rect x="314" y="76" width="36" height="8" fill="#89b4fa" fill-opacity="0.12"/>
  <rect x="314" y="86" width="36" height="8" fill="#89b4fa" fill-opacity="0.20"/>
  <rect x="314" y="96" width="36" height="8" fill="#89b4fa" fill-opacity="0.45"/>
  <rect x="314" y="106" width="36" height="8" fill="#89b4fa" fill-opacity="0.75"/>
  <rect x="314" y="116" width="36" height="8" fill="#89b4fa" fill-opacity="0.60"/>
  <rect x="314" y="126" width="36" height="8" fill="#89b4fa" fill-opacity="0.25"/>
  <rect x="314" y="136" width="36" height="8" fill="#89b4fa" fill-opacity="0.10"/>
  <rect x="314" y="146" width="36" height="8" fill="#89b4fa" fill-opacity="0.08"/>
  <rect x="314" y="156" width="36" height="8" fill="#89b4fa" fill-opacity="0.12"/>
  <rect x="314" y="166" width="36" height="8" fill="#89b4fa" fill-opacity="0.25"/>
  <rect x="314" y="176" width="36" height="8" fill="#89b4fa" fill-opacity="0.50"/>
  <rect x="314" y="186" width="36" height="8" fill="#89b4fa" fill-opacity="0.80"/>
  <rect x="314" y="196" width="36" height="8" fill="#89b4fa" fill-opacity="0.65"/>
  <rect x="314" y="206" width="36" height="8" fill="#89b4fa" fill-opacity="0.30"/>
  <rect x="314" y="216" width="36" height="8" fill="#89b4fa" fill-opacity="0.12"/>
  <rect x="314" y="226" width="36" height="8" fill="#89b4fa" fill-opacity="0.06"/>
  <text x="332" y="255" text-anchor="middle" fill="#7f849c" font-family="Arial, Helvetica, sans-serif" font-size="10">P(a&#x2082;|s,a&#x2081;)</text>

  <!-- Timestep 3 -->
  <text x="402" y="60" text-anchor="middle" fill="#a6e3a1" font-family="Arial, Helvetica, sans-serif" font-size="12" font-weight="bold">t=3</text>
  <rect x="380" y="72" width="44" height="175" rx="4" ry="4" fill="rgba(137,180,250,0.06)" stroke="#89b4fa" stroke-width="1" stroke-opacity="0.5"/>
  <rect x="384" y="76" width="36" height="8" fill="#89b4fa" fill-opacity="0.08"/>
  <rect x="384" y="86" width="36" height="8" fill="#89b4fa" fill-opacity="0.18"/>
  <rect x="384" y="96" width="36" height="8" fill="#89b4fa" fill-opacity="0.40"/>
  <rect x="384" y="106" width="36" height="8" fill="#89b4fa" fill-opacity="0.70"/>
  <rect x="384" y="116" width="36" height="8" fill="#89b4fa" fill-opacity="0.90"/>
  <rect x="384" y="126" width="36" height="8" fill="#89b4fa" fill-opacity="0.55"/>
  <rect x="384" y="136" width="36" height="8" fill="#89b4fa" fill-opacity="0.22"/>
  <rect x="384" y="146" width="36" height="8" fill="#89b4fa" fill-opacity="0.10"/>
  <rect x="384" y="156" width="36" height="8" fill="#89b4fa" fill-opacity="0.08"/>
  <rect x="384" y="166" width="36" height="8" fill="#89b4fa" fill-opacity="0.18"/>
  <rect x="384" y="176" width="36" height="8" fill="#89b4fa" fill-opacity="0.40"/>
  <rect x="384" y="186" width="36" height="8" fill="#89b4fa" fill-opacity="0.65"/>
  <rect x="384" y="196" width="36" height="8" fill="#89b4fa" fill-opacity="0.50"/>
  <rect x="384" y="206" width="36" height="8" fill="#89b4fa" fill-opacity="0.20"/>
  <rect x="384" y="216" width="36" height="8" fill="#89b4fa" fill-opacity="0.08"/>
  <rect x="384" y="226" width="36" height="8" fill="#89b4fa" fill-opacity="0.05"/>
  <text x="402" y="255" text-anchor="middle" fill="#7f849c" font-family="Arial, Helvetica, sans-serif" font-size="10">P(a&#x2083;|s,a&#x2081;,a&#x2082;)</text>

  <!-- Dots for more timesteps -->
  <text x="455" y="165" fill="#585b70" font-family="Arial, Helvetica, sans-serif" font-size="24">...</text>

  <!-- Brace over all timesteps -->
  <path d="M238,48 C238,42 240,40 246,40 L380,40 C386,40 388,38 388,32 C388,38 390,40 396,40 L460,40 C466,40 468,42 468,48" fill="none" stroke="#585b70" stroke-width="1.2"/>
  <text x="353" y="30" text-anchor="middle" fill="#585b70" font-family="Arial, Helvetica, sans-serif" font-size="11">output at each timestep</text>

  <!-- ========== Zoom arrow to detailed view ========== -->
  <line x1="475" y1="160" x2="510" y2="160" stroke="#f9e2af" stroke-width="2" stroke-dasharray="4,3"/>
  <polygon points="508,155 518,160 508,165" fill="#f9e2af"/>
  <text x="495" y="145" text-anchor="middle" fill="#f9e2af" font-family="Arial, Helvetica, sans-serif" font-size="10">zoom</text>

  <!-- ========== Zoomed single timestep (right) ========== -->
  <text x="600" y="48" text-anchor="middle" fill="#f9e2af" font-family="Arial, Helvetica, sans-serif" font-size="13" font-weight="bold">Single timestep output</text>

  <!-- Larger bin column -->
  <rect x="570" y="62" width="60" height="232" rx="5" ry="5" fill="rgba(249,226,175,0.06)" stroke="#f9e2af" stroke-width="1.5"/>

  <!-- 16 representative bins with bimodal opacity -->
  <rect x="575" y="67" width="50" height="12" fill="#f9e2af" fill-opacity="0.08"/>
  <rect x="575" y="81" width="50" height="12" fill="#f9e2af" fill-opacity="0.15"/>
  <rect x="575" y="95" width="50" height="12" fill="#f9e2af" fill-opacity="0.35"/>
  <rect x="575" y="109" width="50" height="12" fill="#f9e2af" fill-opacity="0.65"/>
  <rect x="575" y="123" width="50" height="12" fill="#f9e2af" fill-opacity="0.85"/>
  <rect x="575" y="137" width="50" height="12" fill="#f9e2af" fill-opacity="0.50"/>
  <rect x="575" y="151" width="50" height="12" fill="#f9e2af" fill-opacity="0.18"/>
  <rect x="575" y="165" width="50" height="12" fill="#f9e2af" fill-opacity="0.08"/>
  <rect x="575" y="179" width="50" height="12" fill="#f9e2af" fill-opacity="0.12"/>
  <rect x="575" y="193" width="50" height="12" fill="#f9e2af" fill-opacity="0.30"/>
  <rect x="575" y="207" width="50" height="12" fill="#f9e2af" fill-opacity="0.60"/>
  <rect x="575" y="221" width="50" height="12" fill="#f9e2af" fill-opacity="0.85"/>
  <rect x="575" y="235" width="50" height="12" fill="#f9e2af" fill-opacity="0.55"/>
  <rect x="575" y="249" width="50" height="12" fill="#f9e2af" fill-opacity="0.22"/>
  <rect x="575" y="263" width="50" height="12" fill="#f9e2af" fill-opacity="0.10"/>
  <rect x="575" y="277" width="50" height="12" fill="#f9e2af" fill-opacity="0.05"/>

  <!-- Bin labels -->
  <text x="560" y="77" text-anchor="end" fill="#7f849c" font-family="Arial, Helvetica, sans-serif" font-size="9">bin 1</text>
  <text x="560" y="178" text-anchor="end" fill="#7f849c" font-family="Arial, Helvetica, sans-serif" font-size="9">bin 15</text>
  <text x="560" y="287" text-anchor="end" fill="#7f849c" font-family="Arial, Helvetica, sans-serif" font-size="9">bin 30</text>

  <!-- Brace for vocab_size -->
  <path d="M635,62 C640,62 642,64 642,69 L642,165 C642,170 644,172 649,172 C644,172 642,174 642,179 L642,287 C642,292 640,294 635,294" fill="none" stroke="#f9e2af" stroke-width="1.2"/>
  <text x="660" y="168" fill="#f9e2af" font-family="Arial, Helvetica, sans-serif" font-size="12" font-weight="bold">vocab_size</text>
  <text x="660" y="183" fill="#f9e2af" font-family="Arial, Helvetica, sans-serif" font-size="12" font-weight="bold">= 30</text>

  <!-- LLM comparison -->
  <text x="660" y="210" fill="#7f849c" font-family="Arial, Helvetica, sans-serif" font-size="10">(LLMs use</text>
  <text x="660" y="222" fill="#7f849c" font-family="Arial, Helvetica, sans-serif" font-size="10">~30,000!)</text>

  <!-- Feedback arrows between timesteps -->
  <path d="M275,248 C275,280 320,280 320,248" fill="none" stroke="#f38ba8" stroke-width="1.5" stroke-dasharray="3,2"/>
  <polygon points="317,250 320,243 323,250" fill="#f38ba8"/>
  <text x="298" y="292" text-anchor="middle" fill="#f38ba8" font-family="Arial, Helvetica, sans-serif" font-size="9">feed a&#x2081;</text>

  <path d="M345,248 C345,275 390,275 390,248" fill="none" stroke="#f38ba8" stroke-width="1.5" stroke-dasharray="3,2"/>
  <polygon points="387,250 390,243 393,250" fill="#f38ba8"/>

  <!-- Caption -->
  <text x="400" y="340" text-anchor="middle" fill="#a6adc8" font-family="Arial, Helvetica, sans-serif" font-size="12">Autoregressive: each timestep outputs a probability vector over discretized bins</text>
  <text x="400" y="360" text-anchor="middle" fill="#a6adc8" font-family="Arial, Helvetica, sans-serif" font-size="12">Each action conditioned on all previous: P(a&#x2082;|s,a&#x2081;), P(a&#x2083;|s,a&#x2081;,a&#x2082;), ...</text>
</svg>
