<svg viewBox="0 0 800 420" xmlns="http://www.w3.org/2000/svg" role="img" aria-label="A two-component Gaussian mixture policy captures both modes of bimodal expert data" font-family="Muli, sans-serif">
  <rect x="0" y="0" width="800" height="420" fill="#0f1117"/>
  <rect x="30" y="120" width="130" height="100" fill="#1a1d27" rx="8" stroke="#2a2d3a" stroke-width="1.5"/>
  <text x="95" y="158" text-anchor="middle" fill="#e0e0e6" font-size="13" font-weight="600">Neural net</text>
  <text x="95" y="186" text-anchor="middle" fill="#8b8fa3" font-size="15">π<tspan font-size="10" dy="3">θ</tspan></text>
  <rect x="40" y="275" width="110" height="40" fill="#1a1d27" rx="6" stroke="#2a2d3a" stroke-width="1.5"/>
  <text x="95" y="300" text-anchor="middle" fill="#8b8fa3" font-size="12">Robot state</text>
  <line x1="95.0" y1="275.0" x2="95.0" y2="229.0" stroke="#8b8fa3" stroke-width="1.4"/>
  <polygon points="91.4,231.0 95.0,222.0 98.6,231.0" fill="#8b8fa3"/>
  <line x1="160.0" y1="170.0" x2="199.0" y2="170.0" stroke="#8b8fa3" stroke-width="1.4"/>
  <polygon points="197.0,166.4 206.0,170.0 197.0,173.6" fill="#8b8fa3"/>
  <path d="M220,100 C215,100 213,102 213,107 L213,143.0 C213,148.0 211,150.0 207,150.0 C211,150.0 213,152.0 213,157.0 L213,193 C213,198 215,200 220,200" fill="none" stroke="#565b6e" stroke-width="1.3"/>
  <text x="240" y="118" text-anchor="middle" fill="#e0e0e6" font-size="13" font-style="italic">μ₁  σ₁  w₁</text>
  <text x="240" y="178" text-anchor="middle" fill="#e0e0e6" font-size="13" font-style="italic">μ₂  σ₂  w₂</text>
  <text x="216" y="224" text-anchor="middle" fill="#8b8fa3" font-size="10">mixture</text>
  <text x="216" y="236" text-anchor="middle" fill="#8b8fa3" font-size="10">parameters</text>
  <text x="95" y="345" text-anchor="middle" fill="#8b8fa3" font-size="11" font-style="italic">K components: mean, spread,</text>
  <text x="95" y="360" text-anchor="middle" fill="#8b8fa3" font-size="11" font-style="italic">and weight for each</text>
  <line x1="310.0" y1="50.0" x2="310.0" y2="370.0" stroke="#565b6e" stroke-width="1" stroke-dasharray="4 4"/>
  <text x="560" y="40" text-anchor="middle" fill="#e0e0e6" font-size="14" font-weight="600">Mixture fit to bimodal data</text>
  <line x1="360.0" y1="310.0" x2="360.0" y2="75.0" stroke="#8b8fa3" stroke-width="1.4"/>
  <line x1="360.0" y1="310.0" x2="760.0" y2="310.0" stroke="#8b8fa3" stroke-width="1.4"/>
  <line x1="360.0" y1="310.0" x2="360.0" y2="315.0" stroke="#8b8fa3" stroke-width="1"/>
  <text x="360.0" y="327" text-anchor="middle" fill="#8b8fa3" font-size="10">-30°</text>
  <line x1="426.7" y1="310.0" x2="426.7" y2="315.0" stroke="#8b8fa3" stroke-width="1"/>
  <text x="426.66666666666663" y="327" text-anchor="middle" fill="#8b8fa3" font-size="10">-20°</text>
  <line x1="493.3" y1="310.0" x2="493.3" y2="315.0" stroke="#8b8fa3" stroke-width="1"/>
  <text x="493.3333333333333" y="327" text-anchor="middle" fill="#8b8fa3" font-size="10">-10°</text>
  <line x1="560.0" y1="310.0" x2="560.0" y2="315.0" stroke="#8b8fa3" stroke-width="1"/>
  <text x="560.0" y="327" text-anchor="middle" fill="#8b8fa3" font-size="10">0°</text>
  <line x1="626.7" y1="310.0" x2="626.7" y2="315.0" stroke="#8b8fa3" stroke-width="1"/>
  <text x="626.6666666666666" y="327" text-anchor="middle" fill="#8b8fa3" font-size="10">10°</text>
  <line x1="693.3" y1="310.0" x2="693.3" y2="315.0" stroke="#8b8fa3" stroke-width="1"/>
  <text x="693.3333333333334" y="327" text-anchor="middle" fill="#8b8fa3" font-size="10">20°</text>
  <line x1="760.0" y1="310.0" x2="760.0" y2="315.0" stroke="#8b8fa3" stroke-width="1"/>
  <text x="760.0" y="327" text-anchor="middle" fill="#8b8fa3" font-size="10">30°</text>
  <text x="560" y="351" text-anchor="middle" fill="#8b8fa3" font-size="12">Steering angle</text>
  <path d="M360.0,307.7 L363.0,307.0 L366.0,306.1 L369.0,304.9 L372.0,303.5 L375.0,301.8 L378.0,299.8 L381.1,297.3 L384.1,294.3 L387.1,290.8 L390.1,286.7 L393.1,282.0 L396.1,276.6 L399.1,270.4 L402.1,263.5 L405.1,255.9 L408.1,247.4 L411.1,238.3 L414.1,228.5 L417.1,218.1 L420.2,207.2 L423.2,196.0 L426.2,184.5 L429.2,173.0 L432.2,161.7 L435.2,150.8 L438.2,140.4 L441.2,130.8 L444.2,122.2 L447.2,114.8 L450.2,108.8 L453.2,104.2 L456.2,101.3 L459.2,100.0 L462.3,100.4 L465.3,102.5 L468.3,106.3 L471.3,111.6 L474.3,118.4 L477.3,126.4 L480.3,135.5 L483.3,145.5 L486.3,156.2 L489.3,167.3 L492.3,178.8 L495.3,190.2 L498.3,201.6 L501.4,212.7 L504.4,223.4 L507.4,233.5 L510.4,242.9 L513.4,251.7 L516.4,259.8 L519.4,267.0 L522.4,273.5 L525.4,279.3 L528.4,284.4 L531.4,288.7 L534.4,292.5 L537.4,295.6 L540.5,298.2 L543.5,300.4 L546.5,302.1 L549.5,303.4 L552.5,304.4 L555.5,305.0 L558.5,305.3 L561.5,305.3 L564.5,305.0 L567.5,304.4 L570.5,303.4 L573.5,302.1 L576.5,300.4 L579.5,298.2 L582.6,295.6 L585.6,292.5 L588.6,288.7 L591.6,284.4 L594.6,279.3 L597.6,273.5 L600.6,267.0 L603.6,259.8 L606.6,251.7 L609.6,242.9 L612.6,233.5 L615.6,223.4 L618.6,212.7 L621.7,201.6 L624.7,190.2 L627.7,178.8 L630.7,167.3 L633.7,156.2 L636.7,145.5 L639.7,135.5 L642.7,126.4 L645.7,118.4 L648.7,111.6 L651.7,106.3 L654.7,102.5 L657.7,100.4 L660.8,100.0 L663.8,101.3 L666.8,104.2 L669.8,108.8 L672.8,114.8 L675.8,122.2 L678.8,130.8 L681.8,140.4 L684.8,150.8 L687.8,161.7 L690.8,173.0 L693.8,184.5 L696.8,196.0 L699.8,207.2 L702.9,218.1 L705.9,228.5 L708.9,238.3 L711.9,247.4 L714.9,255.9 L717.9,263.5 L720.9,270.4 L723.9,276.6 L726.9,282.0 L729.9,286.7 L732.9,290.8 L735.9,294.3 L738.9,297.3 L742.0,299.8 L745.0,301.8 L748.0,303.5 L751.0,304.9 L754.0,306.1 L757.0,307.0 L760.0,307.7 L760.0,310 L360.0,310 Z" fill="#6c9eff" opacity="0.1"/>
  <path d="M360.0,307.7 L363.0,307.0 L366.0,306.1 L369.0,304.9 L372.0,303.5 L375.0,301.8 L378.0,299.8 L381.1,297.3 L384.1,294.3 L387.1,290.8 L390.1,286.7 L393.1,282.0 L396.1,276.6 L399.1,270.4 L402.1,263.5 L405.1,255.9 L408.1,247.4 L411.1,238.3 L414.1,228.5 L417.1,218.1 L420.2,207.2 L423.2,196.0 L426.2,184.5 L429.2,173.0 L432.2,161.7 L435.2,150.8 L438.2,140.4 L441.2,130.8 L444.2,122.2 L447.2,114.8 L450.2,108.8 L453.2,104.2 L456.2,101.3 L459.2,100.0 L462.3,100.4 L465.3,102.5 L468.3,106.3 L471.3,111.6 L474.3,118.4 L477.3,126.4 L480.3,135.5 L483.3,145.5 L486.3,156.2 L489.3,167.3 L492.3,178.8 L495.3,190.2 L498.3,201.6 L501.4,212.7 L504.4,223.4 L507.4,233.5 L510.4,242.9 L513.4,251.7 L516.4,259.8 L519.4,267.0 L522.4,273.5 L525.4,279.3 L528.4,284.4 L531.4,288.7 L534.4,292.5 L537.4,295.6 L540.5,298.2 L543.5,300.4 L546.5,302.1 L549.5,303.4 L552.5,304.4 L555.5,305.0 L558.5,305.3 L561.5,305.3 L564.5,305.0 L567.5,304.4 L570.5,303.4 L573.5,302.1 L576.5,300.4 L579.5,298.2 L582.6,295.6 L585.6,292.5 L588.6,288.7 L591.6,284.4 L594.6,279.3 L597.6,273.5 L600.6,267.0 L603.6,259.8 L606.6,251.7 L609.6,242.9 L612.6,233.5 L615.6,223.4 L618.6,212.7 L621.7,201.6 L624.7,190.2 L627.7,178.8 L630.7,167.3 L633.7,156.2 L636.7,145.5 L639.7,135.5 L642.7,126.4 L645.7,118.4 L648.7,111.6 L651.7,106.3 L654.7,102.5 L657.7,100.4 L660.8,100.0 L663.8,101.3 L666.8,104.2 L669.8,108.8 L672.8,114.8 L675.8,122.2 L678.8,130.8 L681.8,140.4 L684.8,150.8 L687.8,161.7 L690.8,173.0 L693.8,184.5 L696.8,196.0 L699.8,207.2 L702.9,218.1 L705.9,228.5 L708.9,238.3 L711.9,247.4 L714.9,255.9 L717.9,263.5 L720.9,270.4 L723.9,276.6 L726.9,282.0 L729.9,286.7 L732.9,290.8 L735.9,294.3 L738.9,297.3 L742.0,299.8 L745.0,301.8 L748.0,303.5 L751.0,304.9 L754.0,306.1 L757.0,307.0 L760.0,307.7" fill="none" stroke="#6c9eff" stroke-width="2"/>
  <path d="M360.0,305.2 L363.0,304.1 L366.0,302.7 L369.0,301.0 L372.0,299.0 L375.1,296.6 L378.1,293.9 L381.1,290.7 L384.1,287.0 L387.1,282.8 L390.1,278.1 L393.1,272.9 L396.1,267.0 L399.1,260.6 L402.2,253.5 L405.2,245.9 L408.2,237.8 L411.2,229.2 L414.2,220.2 L417.2,210.8 L420.2,201.2 L423.2,191.5 L426.2,181.7 L429.2,172.1 L432.3,162.8 L435.3,153.9 L438.3,145.5 L441.3,137.9 L444.3,131.1 L447.3,125.4 L450.3,120.7 L453.3,117.2 L456.3,114.9 L459.4,114.0 L462.4,114.4 L465.4,116.1 L468.4,119.0 L471.4,123.2 L474.4,128.5 L477.4,134.9 L480.4,142.2 L483.4,150.2 L486.5,158.9 L489.5,168.1 L492.5,177.6 L495.5,187.3 L498.5,197.0 L501.5,206.7 L504.5,216.2 L507.5,225.4 L510.5,234.2 L513.5,242.5 L516.6,250.3 L519.6,257.6 L522.6,264.3 L525.6,270.4 L528.6,275.9 L531.6,280.9 L534.6,285.3 L537.6,289.2 L540.6,292.5 L543.7,295.5 L546.7,298.0 L549.7,300.2 L552.7,302.0 L555.7,303.5 L558.7,304.8 L561.7,305.8 L564.7,306.7 L567.7,307.4 L570.8,308.0 L573.8,308.4 L576.8,308.8 L579.8,309.1 L582.8,309.3 L585.8,309.5 L588.8,309.6 L591.8,309.7 L594.8,309.8 L597.8,309.8 L600.9,309.9 L603.9,309.9 L606.9,309.9 L609.9,310.0 L612.9,310.0 L615.9,310.0 L618.9,310.0 L621.9,310.0 L624.9,310.0 L628.0,310.0 L631.0,310.0 L634.0,310.0 L637.0,310.0 L640.0,310.0" fill="none" stroke="#f38ba8" stroke-width="1.8" stroke-dasharray="6 4"/>
  <path d="M480.0,310.0 L483.0,310.0 L486.0,310.0 L489.0,310.0 L492.0,310.0 L495.1,310.0 L498.1,310.0 L501.1,310.0 L504.1,310.0 L507.1,310.0 L510.1,310.0 L513.1,309.9 L516.1,309.9 L519.1,309.9 L522.2,309.8 L525.2,309.8 L528.2,309.7 L531.2,309.6 L534.2,309.5 L537.2,309.3 L540.2,309.1 L543.2,308.9 L546.2,308.6 L549.2,308.1 L552.3,307.6 L555.3,307.0 L558.3,306.2 L561.3,305.2 L564.3,304.1 L567.3,302.7 L570.3,301.1 L573.3,299.1 L576.3,296.8 L579.4,294.1 L582.4,291.1 L585.4,287.6 L588.4,283.6 L591.4,279.1 L594.4,274.1 L597.4,268.5 L600.4,262.4 L603.4,255.8 L606.5,248.7 L609.5,241.1 L612.5,233.1 L615.5,224.8 L618.5,216.2 L621.5,207.4 L624.5,198.5 L627.5,189.7 L630.5,181.1 L633.5,172.8 L636.6,164.9 L639.6,157.6 L642.6,151.0 L645.6,145.2 L648.6,140.4 L651.6,136.6 L654.6,133.9 L657.6,132.3 L660.6,132.0 L663.7,132.9 L666.7,134.9 L669.7,138.1 L672.7,142.3 L675.7,147.6 L678.7,153.7 L681.7,160.6 L684.7,168.2 L687.7,176.3 L690.8,184.8 L693.8,193.5 L696.8,202.3 L699.8,211.2 L702.8,219.9 L705.8,228.4 L708.8,236.6 L711.8,244.4 L714.8,251.8 L717.8,258.7 L720.9,265.1 L723.9,271.0 L726.9,276.3 L729.9,281.1 L732.9,285.3 L735.9,289.1 L738.9,292.4 L741.9,295.3 L744.9,297.8 L748.0,300.0 L751.0,301.8 L754.0,303.3 L757.0,304.6 L760.0,305.7" fill="none" stroke="#e8a87c" stroke-width="1.8" stroke-dasharray="6 4"/>
  <text x="437" y="95" text-anchor="middle" fill="#f38ba8" font-size="10.5">component 1</text>
  <text x="680" y="112" text-anchor="middle" fill="#e8a87c" font-size="10.5">component 2</text>
  <line x1="370.0" y1="56.0" x2="385.0" y2="56.0" stroke="#6c9eff" stroke-width="2"/>
  <text x="390" y="60" text-anchor="start" fill="#8b8fa3" font-size="10">expert data</text>
  <line x1="462.0" y1="56.0" x2="478.0" y2="56.0" stroke="#f38ba8" stroke-width="1.8" stroke-dasharray="4 3"/>
  <text x="483" y="60" text-anchor="start" fill="#8b8fa3" font-size="10">mixture components</text>
  <text x="400" y="405" text-anchor="middle" fill="#8b8fa3" font-size="12">The network outputs a mean, spread, and weight per component — both modes are captured, up to K of them</text>
</svg>
